<svg width="128" height="20" viewBox="0 0 128 20" fill="none" xmlns="http://www.w3.org/2000/svg">
<g clip-path="url(#clip0_483_14676)">
<path d="M24.2104 17.8822V1.66504H30.5827C35.3566 1.66504 36.8698 4.13004 36.8698 7.13562C36.8698 10.1412 35.3566 12.6278 30.5827 12.6278H27.4925V17.8822H24.2104ZM27.4925 9.62224H30.3483C32.4582 9.62224 33.4599 8.80058 33.4599 7.11399C33.4599 5.47066 32.4582 4.64899 30.3483 4.64899H27.4925V9.62224Z" fill="#04455B"/>
<path d="M38.4468 17.8822V6.1626H41.3452L41.5796 7.95729H41.8141C42.6239 6.76804 43.7108 6.1626 45.8207 6.1626V9.06006C45.5224 9.01681 45.2453 9.01681 44.9683 9.01681C42.7305 9.01681 41.5796 10.2061 41.5796 12.6711V17.8822H38.4468V17.8822Z" fill="#04455B"/>
<path d="M46.6519 12.0223C46.6519 7.87068 49.2306 5.83813 52.8537 5.83813C56.3488 5.83813 58.6079 8.04366 58.6079 11.6979C58.6079 12.0655 58.5866 12.4763 58.544 12.8656H49.7421C49.9339 14.8116 51.17 15.8711 52.8323 15.8711C53.834 15.8711 54.7291 15.4387 55.198 14.6603H58.2243C57.5423 16.8009 55.6029 18.2064 52.8537 18.2064C49.0388 18.1848 46.6519 15.9792 46.6519 12.0223ZM55.5177 10.7465C55.2619 9.01669 54.0684 8.1734 52.7045 8.1734C51.3405 8.1734 50.1044 9.08156 49.8273 10.7465H55.5177Z" fill="#04455B"/>
<path d="M59.9722 12.0224C59.9722 7.89242 62.4657 5.83825 65.2575 5.83825C67.0264 5.83825 68.1986 6.44369 69.0724 7.69781H69.3068V1.66504H72.3971V17.8822H69.5413L69.3068 16.3253H69.0511C68.1773 17.5578 67.0264 18.2065 65.2362 18.2065C62.4444 18.1849 59.9722 16.174 59.9722 12.0224ZM69.3495 12.0224C69.3495 9.79523 68.0707 8.43299 66.2379 8.43299C64.4477 8.43299 63.1477 9.64387 63.1477 12.0224C63.1477 14.4009 64.4477 15.6118 66.2379 15.6118C68.0707 15.6118 69.3495 14.2495 69.3495 12.0224Z" fill="#04455B"/>
<path d="M74.3364 2.89751C74.3364 1.83799 75.1037 1.05957 76.148 1.05957C77.1923 1.05957 77.9595 1.83799 77.9595 2.89751C77.9595 3.95703 77.1923 4.73545 76.148 4.73545C75.1037 4.73545 74.3364 3.97865 74.3364 2.89751ZM74.6135 17.8821V6.16256H77.7251V17.8821H74.6135Z" fill="#04455B"/>
<path d="M79.5151 12.0223C79.5151 7.84906 82.1365 5.83813 85.7169 5.83813C88.4449 5.83813 91.0236 7.33011 91.3007 10.4654H88.317C87.9973 8.9302 86.8465 8.32476 85.6956 8.32476C83.9267 8.32476 82.6906 9.55726 82.6906 12.0006C82.6906 14.444 83.9267 15.6765 85.6956 15.6765C86.8465 15.6765 87.9973 15.0711 88.317 13.5359H91.3007C91.0023 16.6712 88.4449 18.1848 85.7169 18.1848C82.1152 18.1848 79.5151 16.1955 79.5151 12.0223Z" fill="#04455B"/>
<path d="M92.5796 12.0223C92.5796 7.87068 95.0731 5.83813 97.865 5.83813C99.6339 5.83813 100.806 6.4652 101.68 7.6977H101.914L102.149 6.16248H105.004V17.8821H102.149L101.914 16.3252H101.659C100.785 17.5793 99.6339 18.2064 97.8437 18.2064C95.0731 18.1848 92.5796 16.1522 92.5796 12.0223ZM101.957 12.0223C101.957 9.79511 100.678 8.43287 98.8453 8.43287C97.0551 8.43287 95.7551 9.64375 95.7551 12.0223C95.7551 14.4008 97.0551 15.6117 98.8453 15.6117C100.678 15.6117 101.957 14.2494 101.957 12.0223Z" fill="#04455B"/>
<path d="M109.096 17.8822V8.84389H106.539V6.16266H109.096V3.02734H112.187V6.16266H115.149V8.84389H112.187V17.8822H109.096V17.8822Z" fill="#04455B"/>
<path d="M116.044 12.0223C116.044 7.8923 118.623 5.83813 122.246 5.83813C125.741 5.83813 128 8.04366 128 11.6979C128 12.0655 127.979 12.4763 127.936 12.8656H119.134C119.326 14.8116 120.562 15.8711 122.224 15.8711C123.226 15.8711 124.121 15.4387 124.59 14.6603H127.616C126.934 16.8009 124.995 18.2064 122.246 18.2064C118.431 18.1848 116.044 15.9792 116.044 12.0223ZM124.91 10.7465C124.654 9.01669 123.461 8.1734 122.097 8.1734C120.733 8.1734 119.496 9.08156 119.219 10.7465H124.91Z" fill="#04455B"/>
<path d="M7.33134 19.482C7.48052 19.5037 7.60839 19.5253 7.71495 19.5253C7.71495 17.9468 7.71495 16.3684 7.71495 14.7899C7.73626 14.5304 7.73626 14.0763 7.48052 13.5358C7.31002 13.1682 7.07559 12.9087 6.9051 12.7573C4.58209 10.7464 2.3017 8.75712 0 6.76782C0 9.7734 0.021312 12.0005 0 12.606C0 12.8006 0.021312 13.1249 0.21312 13.4709C0.298368 13.6223 0.404928 13.752 0.490177 13.8601C3.77223 16.7576 6.2018 18.855 6.54279 19.1145C6.79854 19.3091 7.20346 19.4604 7.33134 19.482Z" fill="#04455B"/>
<path d="M10.3153 19.5038C10.1661 19.5254 10.0382 19.547 9.93164 19.547C9.93164 18.0118 9.93164 16.4766 9.93164 14.9414C9.93164 14.617 9.99558 14.0981 10.2726 13.5359C10.4858 13.125 10.7415 12.8007 10.9546 12.5845C13.1711 10.66 15.4088 8.71398 17.6253 6.78955C17.4761 8.93021 17.6466 10.0978 17.6466 10.7898C17.6466 11.8277 17.6253 12.5196 17.6253 12.7575C17.604 12.9521 17.5827 13.2115 17.4122 13.4926C17.3056 13.6872 17.1777 13.8386 17.1351 13.8818C13.8744 16.7793 11.4448 18.8767 11.1038 19.1362C10.8481 19.3308 10.4431 19.4605 10.3153 19.5038Z" fill="#B3D7E0"/>
<path d="M7.33131 0.0432457C7.4805 0 7.60837 0 7.71493 0C7.71493 1.49198 7.71493 3.00557 7.71493 4.49755C7.73624 4.75702 7.77886 5.31922 7.4805 5.94628C7.20344 6.55172 6.75589 6.91931 6.52146 7.09229C4.34763 8.9951 2.1738 10.8547 0.021289 12.7359C-2.30526e-05 9.73028 0.042601 7.50312 0.021289 6.89768C0.021289 6.70308 0.042601 6.37874 0.234409 6.03277C0.319657 5.88141 0.426217 5.75167 0.511466 5.64356C3.79352 2.7461 6.22309 0.648685 6.56408 0.389211C6.79851 0.216228 7.20344 0.0648685 7.33131 0.0432457Z" fill="#25BECA"/>
<path d="M10.3363 0.0432457C10.1871 0.0216228 10.0592 0 9.95264 0C9.95264 1.62171 9.95264 3.26505 9.95264 4.88676C9.95264 5.12461 9.97395 5.60031 10.251 6.11926C10.4854 6.5301 10.7838 6.81119 10.9756 6.96255C13.2134 8.90861 15.4298 10.833 17.6463 12.7575C17.6889 9.57892 17.6676 7.26527 17.6463 6.78957C17.625 6.57334 17.5823 6.31387 17.4332 6.05439C17.3266 5.85979 17.1987 5.70843 17.1561 5.66518C13.874 2.7461 11.4445 0.670308 11.1035 0.410834C10.8691 0.216228 10.4641 0.0864913 10.3363 0.0432457Z" fill="#EE454F"/>
</g>
<defs>
<clipPath id="clip0_483_14676">
<rect width="128" height="19.5254" fill="white"/>
</clipPath>
</defs>
</svg>
